<?xml version="1.0" standalone="no"?>
<!DOCTYPE svg PUBLIC "-//W3C//DTD SVG 20010904//EN"
 "http://www.w3.org/TR/2001/REC-SVG-20010904/DTD/svg10.dtd">
<svg version="1.0" xmlns="http://www.w3.org/2000/svg"
 width="1170.000000pt" height="610.000000pt" viewBox="0 0 1170.000000 610.000000"
 preserveAspectRatio="xMidYMid meet">

<g transform="translate(0.000000,610.000000) scale(0.100000,-0.100000)"
fill="#000000" stroke="none">
<path d="M0 6044 l0 -56 38 31 c20 17 51 42 67 56 l30 25 -67 0 -68 0 0 -56z"/>
<path d="M149 6029 c-52 -39 -106 -82 -122 -95 l-27 -23 0 -1935 0 -1935 38
-11 c100 -28 103 -27 169 39 55 55 66 61 103 61 98 0 131 -42 126 -161 -3 -82
13 -102 112 -133 81 -25 245 -66 267 -66 7 0 31 24 53 53 23 28 57 70 77 92
20 22 48 63 62 90 33 65 97 176 140 242 18 28 49 83 68 121 39 76 56 95 97
108 37 12 38 26 2 44 -31 16 -57 46 -61 70 -1 8 -13 24 -27 35 -35 28 -32 56
7 81 18 11 31 26 30 32 -3 12 41 18 109 13 40 -2 64 7 102 42 23 22 24 27 21
121 -4 102 -23 166 -50 166 -19 0 -25 13 -29 57 -3 30 1 43 21 60 13 13 28 23
32 23 4 0 16 8 25 19 16 18 15 19 -21 35 -21 9 -45 21 -53 27 -8 5 -27 14 -42
20 -16 6 -28 15 -28 19 0 11 -58 40 -79 40 -9 0 -25 7 -35 15 -18 14 -16 16
33 36 34 15 48 25 40 30 -9 5 -5 9 12 13 35 9 385 26 520 26 114 0 116 0 127
-25 15 -32 53 -33 108 -1 23 13 57 26 76 30 43 8 173 96 213 144 32 39 61 88
102 172 14 30 41 73 58 95 48 60 116 175 122 207 3 16 8 26 11 23 3 -2 12 1
20 8 13 10 15 9 8 -8 -24 -59 -46 -168 -46 -228 0 -37 -6 -80 -14 -95 -7 -15
-21 -58 -32 -97 -10 -38 -35 -96 -55 -128 -52 -80 -71 -144 -71 -236 0 -42 -7
-103 -14 -136 -8 -33 -14 -82 -14 -110 0 -55 13 -79 110 -200 111 -138 178
-202 248 -235 157 -74 186 -107 143 -161 -10 -13 -16 -29 -14 -35 5 -15 -36
-49 -83 -67 -37 -14 -76 -15 -340 -6 -165 5 -342 13 -394 18 -72 7 -105 5
-140 -5 -25 -8 -67 -14 -94 -14 -79 0 -112 -17 -137 -69 -11 -25 -31 -59 -44
-75 -12 -17 -35 -56 -51 -86 -16 -30 -36 -66 -45 -80 -22 -33 -141 -239 -214
-370 -33 -58 -69 -118 -81 -135 -12 -16 -38 -60 -57 -96 -19 -37 -50 -93 -70
-125 -20 -33 -48 -94 -61 -137 -44 -136 -78 -186 -183 -272 -18 -14 -50 -61
-71 -103 -21 -42 -52 -97 -68 -122 -32 -50 -64 -108 -121 -220 -21 -41 -40
-77 -43 -80 -10 -10 -50 -101 -50 -114 0 -7 -9 -21 -20 -31 -11 -10 -20 -28
-20 -41 0 -13 -5 -33 -11 -46 -13 -29 -105 -98 -140 -105 -16 -3 -26 -10 -23
-17 6 -16 -32 -63 -42 -53 -5 4 -2 12 6 17 8 5 11 13 6 17 -5 4 -11 2 -13 -4
-3 -7 -17 -13 -33 -13 -15 0 -30 -6 -32 -13 -14 -36 -8 -37 438 -37 l435 0
-22 29 c-20 27 -21 37 -15 114 10 126 16 140 60 151 46 12 52 5 61 -81 10 -92
-2 -163 -32 -191 l-24 -22 257 0 256 0 -16 25 c-15 23 -15 29 -2 58 24 52 43
141 39 174 -4 25 1 37 20 55 88 79 115 90 160 66 12 -6 66 -13 120 -15 l98 -3
5 29 c5 21 16 33 43 45 57 24 158 30 216 12 64 -20 124 -20 162 -1 23 12 37
13 58 5 37 -14 77 -12 111 5 19 9 64 15 129 16 55 0 139 7 186 15 68 11 124
12 260 5 96 -5 240 -8 322 -7 l147 1 5 -30 c3 -16 2 -126 -2 -243 l-8 -212
2121 0 2121 0 0 52 c1 29 4 142 8 251 l8 197 561 -6 c308 -3 685 -9 836 -14
162 -5 291 -5 314 0 71 16 1062 -18 1161 -40 28 -6 93 -10 145 -9 52 2 164 -2
247 -8 127 -10 162 -16 208 -37 72 -33 133 -41 195 -26 l50 12 0 1012 0 1012
-29 17 c-16 9 -49 17 -73 17 -24 0 -49 5 -54 10 -17 17 -190 19 -344 4 -245
-25 -511 -29 -611 -10 -47 9 -103 16 -125 16 -21 0 -46 5 -54 10 -13 9 -13 12
2 20 13 8 15 19 11 45 -4 27 -2 35 9 35 8 0 25 11 38 25 22 23 23 29 13 63
-54 180 -102 277 -160 322 -21 16 -27 29 -25 55 3 36 -56 226 -90 290 -11 22
-34 54 -50 71 -29 31 -82 162 -99 244 -5 24 -27 74 -50 110 -22 36 -44 72 -49
80 -17 28 -39 85 -50 130 -23 90 -33 116 -66 163 -37 51 -55 93 -74 172 -13
51 -60 144 -90 180 -20 23 -50 108 -50 142 0 34 -25 89 -61 135 -18 22 -42 73
-55 116 -16 52 -40 99 -72 142 -34 46 -53 85 -65 134 -10 37 -31 92 -48 120
-16 29 -29 59 -29 67 0 32 -31 118 -55 154 -14 20 -32 60 -39 89 -19 69 -31
98 -60 144 -14 22 -33 64 -42 93 -10 30 -27 69 -38 88 -12 19 -35 73 -52 120
l-30 86 -1626 3 -1626 2 -10 -67 c-8 -55 -7 -70 4 -79 11 -9 7 -16 -20 -40
-21 -19 -39 -49 -51 -86 -10 -32 -21 -55 -25 -53 -12 7 -18 -57 -9 -90 5 -16
9 -75 10 -130 0 -89 1 -97 12 -68 27 74 288 340 301 307 8 -20 2 -27 -158
-205 -71 -79 -135 -143 -143 -143 -13 2 -16 -29 -15 -126 0 -19 1 -105 2 -190
1 -96 5 -147 10 -135 5 11 45 61 91 110 45 50 105 119 134 155 93 115 190 214
203 206 31 -19 19 -37 -148 -227 -32 -36 -92 -106 -133 -155 -40 -49 -95 -111
-120 -137 l-47 -48 -1 -117 c-1 -64 -4 -130 -8 -147 -6 -28 -8 -25 -29 40 -12
39 -33 122 -48 185 -14 63 -41 167 -59 230 -77 263 -139 592 -156 820 -5 80
-12 155 -15 168 l-4 22 -1177 -2 c-1115 -3 -1176 -4 -1187 -21 -8 -14 -8 -20
4 -27 8 -5 12 -10 8 -10 -4 0 4 -11 17 -24 28 -28 33 -44 43 -144 4 -40 11
-72 15 -71 4 0 19 -6 32 -15 47 -31 89 8 99 91 12 102 10 100 74 102 58 2 118
8 184 17 23 4 39 12 41 23 3 9 3 1 1 -18 -2 -19 -19 -57 -37 -86 -59 -88 -107
-210 -127 -320 -5 -33 -24 -88 -41 -123 l-31 -64 -41 7 c-77 12 -161 13 -181
3 -12 -7 -118 -10 -285 -10 -146 1 -304 -4 -351 -10 -107 -14 -179 -14 -253 2
-48 10 -61 10 -79 -2 -17 -11 -34 -12 -77 -5 -37 6 -87 5 -146 -2 -141 -18
-598 -15 -648 5 -9 3 -26 20 -37 37 -51 80 -68 82 -95 11 -19 -51 -40 -60
-118 -50 -75 10 -133 39 -151 75 -20 39 -20 57 4 106 11 22 19 51 20 64 0 21
15 56 64 146 9 17 16 37 16 46 0 20 39 114 64 156 11 17 31 37 45 44 14 7 29
15 32 17 4 1 14 -19 23 -45 17 -51 25 -139 29 -341 2 -78 7 -126 15 -134 15
-15 15 -11 18 97 5 203 31 337 83 421 15 25 28 32 63 37 24 3 53 4 64 1 11 -3
30 -1 44 5 17 7 -154 10 -536 10 l-561 1 -94 -71z m6274 9 l50 -51 -7 -56 c-3
-31 -22 -117 -41 -191 -20 -74 -42 -173 -50 -220 -9 -47 -26 -125 -40 -175
-14 -49 -36 -137 -50 -195 -25 -107 -93 -351 -99 -358 -2 -2 -7 36 -11 85 -22
293 -54 542 -74 582 -5 9 -11 35 -14 58 l-5 43 19 -23 19 -22 -6 30 c-3 17
-10 43 -15 59 -5 16 -9 48 -9 71 0 23 -7 63 -16 89 -11 31 -15 67 -12 104 3
31 1 68 -5 82 -5 14 -11 30 -12 36 -2 6 -6 21 -10 34 -7 21 -6 22 82 16 83 -6
91 -5 153 23 36 17 73 31 84 31 10 0 41 -23 69 -52z m-3443 8 c0 -3 -4 -8 -10
-11 -5 -3 -10 -1 -10 4 0 6 5 11 10 11 6 0 10 -2 10 -4z m-2399 -67 c20 -39
-8 -173 -35 -163 -20 8 -102 -79 -121 -129 -14 -36 -21 -45 -31 -36 -22 18
-47 -33 -39 -81 6 -36 5 -40 -13 -40 -18 0 -19 4 -11 38 5 20 9 57 9 82 0 52
10 73 32 65 28 -11 46 39 53 141 3 49 20 84 40 84 8 0 15 5 15 10 0 12 59 50
77 50 7 0 17 -10 24 -21z m5498 -399 c0 -10 -3 -8 -9 5 -12 27 -12 43 0 25 5
-8 9 -22 9 -30z m-3700 -388 c-11 -2 -26 2 -34 8 -8 6 -19 9 -25 5 -5 -3 -10
-4 -10 0 0 17 46 21 67 6 20 -15 20 -16 2 -19z m-39 -6 c0 -3 -4 -8 -10 -11
-5 -3 -10 -1 -10 4 0 6 5 11 10 11 6 0 10 -2 10 -4z m-39 -78 c1 -7 0 -17 -1
-23 -1 -5 -2 -18 -3 -27 -2 -29 -27 1 -27 33 0 19 5 29 15 29 8 0 16 -6 16
-12z m3845 -63 c13 -32 -10 -68 -123 -197 -139 -157 -134 -151 -260 -297 -54
-63 -102 -115 -108 -115 -12 -1 -20 55 -8 63 10 7 162 185 225 263 88 110 253
298 261 298 4 0 10 -7 13 -15z m-86 -631 c-11 -31 -39 -78 -62 -103 -22 -25
-86 -97 -141 -160 -80 -90 -102 -110 -109 -97 -12 22 17 64 167 241 70 83 135
160 144 172 24 32 25 10 1 -53z m1472 -678 c64 -14 129 -33 143 -42 34 -22
110 -116 137 -168 55 -107 63 -233 22 -360 -33 -102 -48 -131 -70 -131 -13 0
-22 -13 -31 -44 -7 -24 -19 -52 -28 -61 -8 -9 -15 -21 -15 -27 0 -5 -11 -15
-25 -21 -26 -12 -47 -51 -47 -89 0 -13 -5 -23 -10 -23 -5 0 -8 -6 -5 -12 2 -7
-9 -25 -24 -40 -16 -16 -23 -28 -16 -29 6 0 -1 -7 -18 -14 -42 -20 -185 -20
-185 -1 0 8 5 18 11 22 20 12 129 186 129 205 0 16 -7 14 -52 -18 l-53 -37 49
47 c26 27 54 46 61 43 31 -12 105 266 105 392 0 56 -1 57 -18 35 -9 -12 -36
-27 -60 -34 -51 -15 -125 -1 -181 34 -37 22 -40 24 -66 26 -8 0 -15 10 -15 21
0 22 -47 95 -61 94 -5 -1 -18 -2 -29 -2 -21 -2 -29 -32 -9 -32 11 0 10 -17 -8
-90 -6 -23 -15 -36 -28 -38 -25 -4 -113 -34 -190 -65 -33 -14 -85 -27 -116
-31 -56 -6 -56 -6 -51 19 2 14 2 25 -1 25 -13 0 -57 -24 -57 -31 0 -18 -57
-18 -126 1 -68 19 -83 20 -144 10 -71 -12 -107 -34 -76 -46 43 -17 -6 -64 -66
-64 -42 0 -234 -52 -288 -79 -8 -4 -23 -5 -33 -3 -49 10 139 102 210 102 44 0
193 117 193 152 0 9 6 19 13 21 6 3 -1 6 -16 6 -15 1 -30 7 -33 14 -3 9 -23
12 -67 10 -112 -6 -146 -14 -223 -54 -42 -21 -85 -39 -94 -39 -29 0 -91 -29
-164 -77 -37 -25 -71 -42 -75 -37 -7 11 -37 12 -47 2 -4 -4 -20 0 -35 9 -34
20 -39 61 -11 86 17 15 166 74 295 117 56 18 81 34 130 82 59 56 60 59 32 54
-74 -12 -153 -34 -176 -49 -24 -16 -127 -48 -210 -66 -73 -16 -100 20 -57 74
26 33 42 40 283 124 l190 66 320 2 c336 2 488 6 620 18 77 6 81 6 106 -19 15
-14 29 -31 32 -38 8 -21 35 22 29 46 -4 17 -3 19 9 10 8 -7 22 -8 34 -3 11 4
47 7 80 7 l60 0 -60 -12 c-58 -12 -115 -40 -115 -57 0 -4 20 1 45 12 40 18 52
19 100 9 30 -6 55 -15 55 -19 0 -4 6 -8 13 -8 23 0 68 -36 63 -49 -3 -8 1 -14
8 -14 13 0 36 -41 36 -65 0 -8 5 -15 10 -15 6 0 8 11 4 28 -6 24 -18 48 -75
141 -11 17 -23 25 -37 23 -16 -2 -20 1 -16 11 3 9 -6 24 -23 37 -23 18 -37 21
-75 17 -27 -2 -48 -1 -48 4 0 26 92 24 232 -5z m-3575 -229 c41 6 77 -21 40
-31 -23 -6 -107 23 -107 37 0 4 8 4 18 -1 9 -5 31 -7 49 -5z m-3027 -47 c0
-25 -4 -30 -25 -30 -16 0 -25 6 -25 15 0 8 -9 15 -19 15 -21 0 -34 13 -24 24
3 3 26 6 50 6 41 0 43 -1 43 -30z m-180 4 c0 -2 -7 -4 -15 -4 -8 0 -15 4 -15
10 0 5 7 7 15 4 8 -4 15 -8 15 -10z m3797 -64 c41 -23 45 -23 140 -11 54 6
183 16 287 22 104 5 192 12 196 14 4 3 45 -2 91 -10 46 -8 125 -15 174 -15 90
0 160 -11 175 -27 8 -8 -2 -89 -13 -99 -3 -3 -27 2 -53 11 -35 12 -70 15 -133
11 -98 -6 -161 -16 -161 -25 0 -4 55 -39 123 -79 227 -133 286 -188 225 -211
-22 -8 -49 -1 -123 30 -16 7 -32 13 -35 14 -3 1 -12 4 -20 7 -8 3 -41 13 -73
22 -53 16 -61 16 -82 2 -21 -14 -85 -19 -175 -15 -34 2 -121 -9 -128 -15 -3
-3 -10 -1 -17 4 -6 5 -45 12 -86 16 -41 3 -108 12 -149 19 -41 8 -94 16 -117
18 -23 2 -49 9 -56 16 -11 9 -21 8 -43 -4 -25 -13 -29 -13 -37 1 -6 11 -12 12
-21 4 -10 -7 -17 -6 -25 4 -7 8 -26 18 -42 21 -55 12 -56 77 -3 175 22 43 39
60 74 78 36 18 39 21 15 16 -41 -9 -87 -55 -124 -123 -36 -68 -53 -117 -81
-236 -12 -49 -33 -128 -47 -174 l-25 -84 22 -86 c13 -47 31 -105 41 -129 22
-50 78 -106 134 -133 38 -18 39 -19 12 -19 -16 0 -37 5 -48 10 -31 17 -22 -5
16 -39 19 -17 35 -33 35 -35 0 -3 -33 11 -72 31 -40 20 -80 37 -89 38 -40 3
-76 45 -103 117 -14 40 -26 84 -26 98 0 14 -14 52 -30 84 -17 32 -30 69 -30
82 0 12 13 55 29 96 16 40 37 108 45 151 34 163 117 316 201 369 44 28 173 21
232 -12z m2813 -65 c0 -8 -7 -15 -16 -15 -14 0 -14 3 -4 15 7 8 14 15 16 15 2
0 4 -7 4 -15z m-6363 -54 c29 -34 38 -83 24 -131 -36 -120 -184 -101 -198 24
-5 38 -1 53 21 86 41 63 108 72 153 21z m5181 -329 c37 -11 30 -22 -30 -46
-63 -26 -208 -45 -208 -27 0 13 40 51 54 52 6 0 38 6 71 14 67 15 80 16 113 7z
m-962 -34 c25 -11 48 -26 50 -32 6 -14 54 -19 54 -6 0 16 32 12 70 -9 19 -10
53 -24 75 -31 83 -26 183 -72 189 -85 6 -18 -23 -35 -58 -35 -62 0 -276 80
-276 103 0 5 -9 5 -20 2 -12 -4 -20 -2 -20 6 0 8 -4 8 -13 1 -26 -22 -207 -6
-207 19 0 4 -9 11 -20 14 -35 11 -10 27 39 23 35 -2 45 0 43 11 -10 45 25 52
94 19z m2504 -53 c-7 -9 -15 -13 -19 -10 -3 3 1 10 9 15 21 14 24 12 10 -5z
m-2235 -320 c101 -34 123 -48 105 -70 -12 -15 -56 -22 -47 -7 3 4 -14 8 -36
10 -23 1 -51 6 -62 11 -11 5 -47 20 -79 33 -67 28 -81 45 -39 50 46 5 74 1
158 -27z m2171 -5 c26 -16 62 -33 81 -36 18 -3 31 -10 28 -14 -2 -4 1 -15 8
-24 10 -14 20 -15 72 -6 105 19 210 42 220 50 6 4 39 17 75 30 55 18 82 21
175 19 61 -2 144 -3 185 -3 432 5 1359 3 1388 -1 98 -16 105 -25 40 -45 -26
-7 -37 -15 -28 -18 8 -3 26 -9 40 -14 l25 -10 -25 -13 c-21 -11 -241 -14
-1178 -17 -633 -1 -1152 -1 -1153 2 -8 80 -10 130 -5 130 3 0 27 -13 52 -30z
m-7061 -179 c-18 -17 -110 -18 -100 -1 3 6 29 10 58 10 31 0 47 -4 42 -9z
m4740 -41 c3 -5 -1 -10 -10 -10 -9 0 -13 5 -10 10 3 6 8 10 10 10 2 0 7 -4 10
-10z m445 -355 c0 -7 -7 -18 -15 -25 -13 -11 -15 -8 -15 18 0 24 4 30 15 26 8
-4 15 -12 15 -19z m5508 -141 c28 -31 28 -65 1 -90 -18 -16 -37 -19 -142 -19
l-121 0 -11 29 c-8 25 -6 31 18 52 17 14 41 24 60 24 18 1 55 9 82 19 59 21
82 18 113 -15z m-5262 -89 c-3 -13 -18 -44 -34 -67 -40 -59 -191 -228 -203
-228 -18 0 -9 66 15 98 40 55 200 220 214 221 8 1 11 -8 8 -24z m-413 -132
c-7 -2 -19 -2 -25 0 -7 3 -2 5 12 5 14 0 19 -2 13 -5z m-2313 -274 c63 0 176
1 250 4 74 2 159 2 188 0 53 -5 53 -5 50 -37 -2 -22 -7 -30 -18 -27 -12 4
-191 14 -375 21 -45 2 -156 -7 -197 -16 -22 -4 -25 -8 -15 -17 28 -28 75 -37
229 -44 200 -9 205 -9 299 1 l76 8 -5 -103 c-2 -57 -7 -119 -11 -137 l-6 -34
-230 -4 c-127 -3 -257 -9 -290 -14 -33 -6 -121 -10 -195 -10 -113 0 -141 3
-170 19 -51 27 -58 55 -31 139 31 95 54 130 99 148 20 8 45 19 54 24 10 6 35
11 55 11 33 2 34 2 8 6 -88 11 -166 26 -170 33 -6 10 54 32 66 24 5 -3 17 -1
26 5 10 6 56 8 108 6 50 -3 142 -5 205 -6z m4610 -14 c6 4 18 4 27 1 12 -5 13
-9 3 -21 -10 -12 -16 -13 -28 -3 -13 11 -14 10 -7 -11 5 -16 4 -21 -4 -17 -6
4 -11 1 -11 -8 0 -13 43 -15 350 -15 192 0 507 -3 699 -7 335 -7 433 -3 386
16 -15 6 -7 9 28 9 44 1 63 -11 35 -22 -7 -3 24 -6 69 -6 76 -1 117 11 76 22
-10 3 1 5 25 6 23 0 42 6 42 11 0 6 24 10 54 10 30 0 56 5 58 10 6 20 344 28
418 11 20 -4 62 -6 94 -3 42 3 57 2 52 -7 -4 -6 0 -12 11 -12 10 -1 25 -3 33
-4 8 -1 23 -3 34 -4 14 -1 17 -7 14 -26 -5 -24 -3 -25 51 -25 31 -1 72 -7 91
-14 19 -8 60 -23 91 -34 60 -21 149 -97 149 -126 0 -19 43 -38 64 -30 10 4 13
15 10 32 -4 21 3 35 32 66 37 38 38 38 88 30 28 -4 128 -8 221 -9 192 0 217
-7 250 -69 11 -20 24 -36 30 -36 12 0 37 22 72 64 26 30 49 33 81 10 26 -18
28 -39 5 -53 -15 -8 -16 -12 -5 -22 22 -24 12 -38 -35 -52 -39 -12 -55 -12
-83 -2 -30 11 -54 10 -145 -6 -127 -22 -302 -19 -443 8 -88 16 -128 11 -277
-35 -44 -14 -155 -16 -905 -14 -470 1 -1065 5 -1322 8 l-466 7 -10 41 c-14 54
-30 171 -37 270 -5 70 -4 78 9 67 8 -7 20 -10 26 -6z m-5053 -11 c-3 -3 -12
-4 -19 -1 -8 3 -5 6 6 6 11 1 17 -2 13 -5z m3229 -27 c-2 -33 -27 -76 -64
-110 -23 -21 -62 -15 -62 8 0 11 113 135 123 135 2 0 3 -15 3 -33z m2312 6
c-16 -2 -40 -2 -55 0 -16 2 -3 4 27 4 30 0 43 -2 28 -4z m965 -10 c-13 -2 -35
-2 -50 0 -16 2 -5 4 22 4 28 0 40 -2 28 -4z m-965 -10 c-15 -2 -42 -2 -60 0
-18 2 -6 4 27 4 33 0 48 -2 33 -4z m-5841 -123 c37 -22 48 -41 57 -97 5 -37 3
-44 -21 -63 -27 -21 -34 -22 -148 -15 -66 4 -147 6 -181 5 -45 -1 -66 4 -83
17 -21 17 -21 19 -6 51 22 44 48 55 109 49 47 -5 58 -1 116 34 73 44 110 48
157 19z m-928 -64 c5 -6 12 -28 16 -48 6 -31 3 -41 -19 -62 -31 -31 -45 -32
-80 -5 -29 22 -31 36 -16 91 8 26 17 38 33 40 29 5 54 -1 66 -16z m-316 -28
c21 -24 33 -46 28 -51 -25 -25 -129 -26 -193 -2 -19 8 -25 25 -8 25 6 0 10 9
10 19 0 12 13 24 38 34 62 26 85 22 125 -25z m676 -32 c9 -10 7 -19 -6 -35
-15 -18 -22 -20 -43 -12 -14 5 -19 10 -11 10 10 1 11 4 2 15 -10 11 -8 17 6
25 25 14 38 14 52 -3z m-89 0 c0 -15 -14 -35 -21 -30 -15 9 -10 34 6 34 8 0
15 -2 15 -4z m-304 -611 c10 -15 11 -35 4 -83 -5 -35 -6 -78 -3 -97 4 -23 0
-43 -11 -60 -19 -29 -37 -31 -71 -9 -23 15 -23 19 -20 127 2 62 3 116 4 120 1
10 36 23 63 23 11 0 26 -9 34 -21z m-814 -315 c-3 -31 -6 -34 -36 -26 -28 7
-30 24 -6 43 23 20 45 11 42 -17z"/>
<path d="M7372 3480 c-36 -33 -35 -39 3 -14 24 16 47 15 90 -1 11 -4 3 4 -18
19 -21 14 -39 26 -40 26 -1 0 -17 -14 -35 -30z"/>
<path d="M6517 3408 c-32 -21 -36 -26 -25 -41 22 -29 183 -25 243 6 16 9 11
13 -40 29 -99 31 -135 32 -178 6z"/>
<path d="M6875 3380 c-12 -19 6 -32 23 -17 10 8 26 17 37 20 12 3 4 5 -17 6
-20 0 -40 -3 -43 -9z"/>
<path d="M8493 2498 c-10 -3 63 -6 162 -6 99 0 173 2 165 4 -31 7 -311 9 -327
2z"/>
<path d="M9718 2493 c7 -3 16 -2 19 1 4 3 -2 6 -13 5 -11 0 -14 -3 -6 -6z"/>
<path d="M2332 6080 c7 -11 16 -20 20 -20 4 0 21 -13 36 -30 50 -52 80 -27 42
35 -19 31 -26 35 -66 35 -42 0 -43 -1 -32 -20z"/>
<path d="M2600 6091 c0 -5 -19 -27 -41 -49 -40 -39 -41 -41 -25 -63 20 -29 21
-88 2 -95 -8 -3 -20 -18 -26 -34 -10 -25 -9 -33 9 -59 12 -16 21 -41 21 -55 0
-30 -68 -106 -96 -106 -19 -1 -19 -1 0 -15 31 -23 80 -18 115 11 l31 26 -2
129 -3 129 42 40 c23 22 53 42 66 45 15 4 34 24 50 56 l27 49 -85 0 c-47 0
-85 -4 -85 -9z"/>
<path d="M5544 6063 c14 -22 30 -36 38 -33 7 2 34 4 61 3 l47 -2 0 35 0 34
-85 0 -85 0 24 -37z"/>
<path d="M9780 6095 c0 -2 14 -24 30 -47 17 -24 41 -58 53 -76 14 -20 28 -31
39 -28 15 3 78 -61 78 -79 0 -23 58 -71 99 -82 58 -15 64 -15 56 -3 -4 7 8 8
34 4 28 -4 41 -3 41 5 0 6 8 11 18 11 34 0 70 -117 42 -135 -6 -3 8 -27 31
-54 33 -38 46 -47 65 -43 13 2 24 8 24 13 0 5 6 9 13 9 23 0 37 47 38 123 2
128 -6 120 149 132 l135 10 3 41 c3 34 7 43 26 46 34 7 66 -9 66 -32 0 -11 -4
-20 -8 -20 -12 0 -12 -108 0 -172 8 -44 16 -59 32 -65 11 -4 80 -8 151 -10 72
-1 168 -4 214 -6 l84 -3 39 -44 c34 -40 38 -42 36 -20 -2 19 2 26 20 28 12 2
27 12 33 23 6 12 17 18 25 15 46 -18 149 42 112 65 -7 5 -85 6 -173 3 -157 -6
-161 -5 -194 18 -34 24 -34 24 -85 6 -60 -20 -78 -22 -126 -8 -66 19 -95 105
-52 154 10 12 24 43 30 69 11 45 11 50 -8 65 -14 12 -18 24 -14 40 4 12 10 22
14 22 4 0 10 7 14 15 5 13 -65 15 -589 15 -327 0 -595 -2 -595 -5z m940 -195
c0 -22 -4 -40 -10 -40 -5 0 -10 18 -10 40 0 22 5 40 10 40 6 0 10 -18 10 -40z
m-80 0 c0 -5 -4 -10 -10 -10 -5 0 -10 5 -10 10 0 6 5 10 10 10 6 0 10 -4 10
-10z"/>
<path d="M10986 6085 c11 -27 53 -30 77 -6 l21 21 -51 0 c-43 0 -51 -3 -47
-15z"/>
<path d="M11244 6069 c-9 -18 -36 -60 -60 -93 -24 -33 -44 -69 -44 -79 0 -17
5 -18 48 -11 52 9 57 9 223 0 92 -4 119 -3 128 8 9 11 8 17 -2 28 -8 8 -18 25
-22 38 -4 14 -22 39 -39 57 -17 17 -31 42 -31 55 0 22 -3 23 -92 26 l-92 3
-17 -32z"/>
<path d="M11564 6085 c11 -8 26 -15 33 -15 8 0 19 -13 24 -29 9 -24 48 -51 75
-51 2 0 4 25 4 55 l0 55 -77 0 c-71 -1 -76 -2 -59 -15z"/>
<path d="M9427 6074 c-35 -19 -47 -50 -47 -125 0 -64 31 -139 72 -175 30 -28
98 -121 98 -136 0 -26 39 -75 69 -88 29 -12 30 -14 16 -30 -12 -13 -14 -30 -9
-81 4 -35 11 -69 16 -76 27 -34 78 -147 78 -172 0 -16 11 -42 24 -58 22 -26
44 -90 65 -187 5 -21 18 -50 30 -65 32 -40 73 -120 92 -179 9 -29 28 -67 41
-85 30 -40 73 -131 82 -175 9 -40 32 -86 51 -102 20 -17 71 -119 80 -160 9
-45 55 -150 66 -150 11 0 79 -139 79 -162 0 -25 52 -126 84 -163 14 -16 33
-44 40 -60 8 -17 24 -41 35 -54 12 -13 21 -34 21 -47 0 -30 82 -94 119 -94
132 3 202 26 221 75 16 42 -5 167 -42 241 -29 60 -140 238 -158 254 -3 3 -32
57 -64 120 -32 63 -64 122 -71 130 -17 21 -53 100 -61 135 -4 17 -10 35 -14
40 -4 6 -10 23 -14 39 -9 37 -36 76 -100 144 -29 31 -64 83 -83 124 -19 40
-44 86 -56 102 -12 17 -29 45 -37 61 -25 50 -52 87 -107 145 -39 41 -65 83
-104 170 -29 63 -62 131 -74 150 -36 57 -100 117 -139 130 -37 12 -59 39 -62
75 -3 30 -23 103 -33 123 -5 9 -20 51 -32 92 -30 99 -104 271 -121 281 -17 11
-18 11 -51 -7z"/>
<path d="M2231 5670 c-13 -11 -29 -20 -37 -20 -8 0 -14 -4 -14 -9 0 -10 119
-25 128 -16 9 8 -24 60 -40 62 -7 2 -24 -6 -37 -17z"/>
<path d="M1953 5634 c10 -10 166 -14 189 -4 16 6 -11 9 -86 9 -60 1 -107 -2
-103 -5z"/>
<path d="M11348 5526 c-15 -8 -37 -24 -50 -36 -12 -11 -34 -24 -47 -27 -14 -3
-137 -3 -275 1 -138 4 -308 6 -378 6 -123 -1 -129 0 -150 23 -15 15 -39 26
-65 29 -36 5 -50 1 -95 -28 -29 -19 -58 -34 -65 -34 -19 0 -37 -40 -24 -53 6
-6 11 -19 11 -29 0 -11 11 -29 24 -41 24 -23 66 -94 66 -112 0 -6 10 -31 22
-56 29 -59 34 -125 14 -173 -9 -21 -16 -46 -16 -56 0 -24 61 -160 71 -160 5 0
9 -11 9 -25 0 -14 5 -25 10 -25 6 0 15 -11 20 -25 10 -25 34 -33 45 -15 11 18
22 11 28 -17 3 -16 30 -57 60 -93 48 -58 111 -173 132 -241 4 -13 22 -44 39
-68 38 -54 74 -111 83 -131 3 -8 20 -46 38 -85 17 -38 38 -92 45 -120 17 -62
26 -79 70 -134 19 -23 44 -62 55 -84 11 -23 38 -54 60 -69 84 -58 178 -110
228 -127 69 -23 107 -78 116 -164 1 -5 5 -6 11 -2 5 3 7 -13 4 -42 -5 -40 -2
-52 16 -71 12 -13 27 -21 33 -19 19 6 20 63 2 100 -12 27 -13 43 -5 87 15 78
31 92 105 89 33 -1 70 -1 83 0 l22 1 0 1006 0 1006 -57 -6 c-32 -4 -90 -9
-129 -12 -68 -5 -71 -5 -88 20 -19 29 -39 32 -78 12z m-137 -332 c42 -29 57
-70 39 -104 -10 -18 -14 -19 -27 -8 -10 8 -35 12 -69 10 -79 -5 -94 2 -94 48
0 75 80 104 151 54z"/>
<path d="M260 1673 c1 -22 23 -34 94 -49 43 -9 80 -14 82 -11 8 8 -39 32 -95
50 -58 18 -81 21 -81 10z"/>
<path d="M340 1167 c-21 -11 -24 -18 -22 -52 3 -44 31 -75 66 -75 24 0 55 29
76 68 10 21 9 27 -11 48 -25 27 -69 31 -109 11z"/>
<path d="M140 560 c-10 -14 -46 -67 -79 -118 l-61 -93 0 -174 0 -175 60 0 c64
0 72 7 40 30 -26 19 -25 26 6 53 25 22 32 49 51 182 3 22 10 45 15 52 5 7 7
16 4 21 -3 5 1 24 10 41 8 17 13 35 10 39 -3 5 6 20 19 32 15 14 25 35 25 52
0 15 5 28 10 28 14 0 12 11 -5 33 -22 30 -81 28 -105 -3z"/>
<path d="M1703 8 c-10 -3 321 -7 736 -7 415 -1 752 2 749 5 -9 8 -1464 11
-1485 2z"/>
<path d="M3473 3 c43 -2 110 -2 150 0 40 1 5 3 -78 3 -82 0 -115 -2 -72 -3z"/>
<path d="M8578 3 c12 -2 32 -2 45 0 12 2 2 4 -23 4 -25 0 -35 -2 -22 -4z"/>
</g>
</svg>
