<?xml version="1.0" standalone="no"?>
<!DOCTYPE svg PUBLIC "-//W3C//DTD SVG 20010904//EN"
 "http://www.w3.org/TR/2001/REC-SVG-20010904/DTD/svg10.dtd">
<svg version="1.0" xmlns="http://www.w3.org/2000/svg"
 width="2000.000000pt" height="2000.000000pt" viewBox="0 0 2000.000000 2000.000000"
 preserveAspectRatio="xMidYMid meet">

<g transform="translate(0.000000,2000.000000) scale(0.100000,-0.100000)"
fill="#000000" stroke="none">
<path d="M0 10000 l0 -10000 1975 0 1975 0 0 154 c0 85 2 161 5 168 3 8 -3 23
-14 35 -15 15 -17 23 -8 27 7 3 1 3 -13 0 -64 -13 -128 153 -89 229 20 39 80
107 94 107 22 0 26 63 27 398 1 260 4 322 15 322 9 0 13 13 13 40 0 33 -3 40
-20 40 -17 0 -20 7 -20 40 0 34 3 40 21 40 18 0 20 4 15 28 -15 66 -19 132 -7
132 17 0 13 61 -5 81 -14 16 -14 18 6 29 21 11 21 13 5 30 -13 15 -22 17 -36
10 -27 -15 -35 -12 -13 4 18 14 18 15 -6 25 -14 6 -41 21 -61 33 -77 48 -189
113 -679 397 -335 194 -518 306 -542 331 -33 34 -38 45 -38 88 0 49 19 86 60
119 8 7 141 86 295 175 154 89 310 180 347 203 l67 42 -392 236 c-216 129
-432 260 -482 291 -49 30 -169 102 -265 161 -572 346 -610 372 -669 449 -92
120 -72 238 62 362 77 71 158 125 407 271 209 122 707 410 770 446 19 10 155
89 301 174 l267 154 6 322 c6 319 26 1812 26 1958 0 69 -2 77 -23 88 -26 14
-95 99 -121 148 -27 53 -40 349 -41 913 0 572 3 605 70 816 18 57 31 104 30
104 -1 0 -70 -39 -151 -87 -82 -47 -300 -173 -484 -280 -184 -107 -339 -201
-345 -209 -65 -102 -137 -157 -207 -157 -57 0 -80 27 -80 92 0 155 194 332
290 265 22 -15 34 -9 345 172 177 103 421 245 542 315 145 84 239 146 276 181
66 63 134 102 213 122 66 17 258 124 249 139 -3 5 3 4 14 -1 11 -6 49 -16 85
-22 55 -10 80 -9 143 4 88 18 218 75 234 102 6 11 11 15 11 11 0 -4 11 4 26
18 14 14 22 30 18 37 -4 6 -3 8 3 5 10 -6 45 62 42 81 -1 4 0 9 1 12 21 54 41
181 50 312 10 153 21 214 51 286 10 23 15 42 11 42 -4 0 1 5 11 11 9 6 15 14
13 18 -3 4 8 15 25 25 16 9 27 21 25 25 -5 8 7 10 86 14 32 2 56 1 53 -1 -2
-2 9 -18 25 -36 17 -17 30 -36 30 -42 0 -6 7 -17 15 -24 8 -7 13 -16 10 -20
-3 -5 0 -14 7 -22 7 -7 13 -20 13 -28 0 -8 5 -14 12 -13 7 2 10 -3 7 -10 -3
-8 4 -25 15 -38 11 -13 20 -19 21 -12 0 7 7 10 16 6 13 -5 13 -7 2 -14 -10 -7
-9 -9 5 -9 10 0 20 7 23 15 4 8 10 13 14 10 14 -9 19 53 10 112 -14 82 -12
179 4 241 8 28 12 52 9 52 -2 0 5 12 16 26 11 14 19 31 17 37 -1 7 -1 9 1 5 6
-10 78 64 75 75 -2 5 1 6 6 3 11 -7 124 69 115 77 -3 4 3 7 14 7 24 0 97 63
86 74 -4 4 0 4 10 0 11 -4 17 -1 17 9 0 8 6 17 13 20 8 3 31 40 53 84 l39 78
0 125 c0 112 -2 129 -23 163 -12 21 -17 35 -11 31 6 -3 0 13 -13 36 -28 52
-144 174 -157 166 -5 -4 -12 0 -15 6 -3 7 -3 0 0 -17 37 -175 11 -307 -83
-422 -67 -84 -138 -107 -353 -118 -231 -12 -367 -41 -460 -100 -79 -50 -174
-185 -194 -276 -36 -161 -45 -236 -56 -479 -16 -351 -39 -412 -171 -467 -51
-21 -80 -26 -144 -26 -94 0 -139 16 -190 67 -19 19 -35 33 -35 30 0 -9 43 -69
52 -72 5 -2 6 -8 3 -12 -3 -5 5 -16 17 -24 12 -9 18 -16 13 -16 -5 0 -5 -4 0
-9 6 -6 9 -44 7 -85 l-4 -75 -218 -125 c-121 -69 -224 -126 -230 -126 -7 0 -9
403 -8 1302 l3 1302 220 128 c121 70 223 128 228 128 4 0 7 -164 7 -365 0
-201 2 -365 4 -365 3 0 37 24 75 53 86 64 209 127 311 157 41 12 108 42 150
66 l75 44 5 -30 5 -31 130 -4 c152 -4 263 -23 395 -68 80 -27 110 -32 190 -32
86 0 101 3 155 30 l60 30 5 1147 5 1146 25 19 c14 10 36 24 50 31 14 6 32 16
40 21 8 5 44 27 80 47 36 21 68 42 71 47 3 5 9 8 13 7 15 -3 174 95 169 104
-4 5 -1 6 5 2 6 -3 35 8 64 25 29 18 73 43 98 57 25 14 47 28 50 31 3 3 21 14
40 24 19 9 53 29 75 43 22 13 48 27 58 31 9 3 17 9 17 13 0 4 11 11 25 14 14
4 34 14 44 24 10 9 22 18 27 19 13 2 187 103 194 111 3 4 12 8 20 10 24 6 184
104 193 119 5 7 12 11 18 8 5 -4 30 7 55 24 25 17 49 31 55 31 5 0 9 4 9 9 0
5 10 13 23 17 28 9 206 111 229 132 10 8 18 12 18 9 0 -6 35 14 125 70 11 7
36 20 54 28 19 9 49 26 65 38 17 12 48 31 69 41 20 11 37 24 37 29 0 6 3 7 6
4 11 -10 45 13 38 25 -4 7 -3 8 4 4 10 -6 47 9 62 24 3 3 26 16 52 29 26 13
45 28 42 32 -3 5 2 6 10 3 9 -3 16 -1 16 6 0 6 4 9 8 6 5 -3 19 4 30 15 12 11
22 17 22 14 0 -3 18 6 41 21 23 14 60 36 82 49 23 12 118 66 210 119 92 53
170 96 173 96 2 0 4 -423 4 -940 l0 -941 48 27 c26 16 99 59 162 97 262 158
407 216 593 237 44 5 85 15 90 22 6 10 8 9 4 -3 -4 -12 2 -16 24 -17 l29 -1 2
1162 c3 1094 4 1164 21 1202 56 124 192 166 344 106 27 -10 146 -75 264 -143
117 -69 261 -152 319 -185 183 -105 1318 -761 1485 -858 88 -51 178 -103 200
-115 22 -12 184 -106 360 -207 176 -102 408 -236 515 -298 107 -62 265 -153
350 -203 143 -83 900 -520 1190 -687 69 -39 287 -166 485 -280 198 -114 416
-240 485 -280 69 -40 346 -199 615 -355 547 -316 499 -288 1165 -673 267 -154
505 -295 530 -313 65 -47 171 -159 219 -230 23 -34 59 -99 80 -145 77 -164 71
16 71 -2154 0 -1457 -3 -1958 -12 -1993 -17 -69 -88 -136 -159 -151 -67 -14
-140 -2 -224 38 -33 15 -510 288 -1060 606 -1125 650 -1092 631 -1680 970
-236 136 -599 346 -805 465 -1096 633 -1143 660 -1155 660 -2 0 -6 -359 -7
-797 -3 -796 -3 -798 -25 -864 -29 -85 -90 -177 -161 -246 -68 -66 -229 -175
-329 -223 -40 -19 -73 -37 -73 -40 0 -3 19 -20 41 -39 l40 -33 167 26 c92 14
255 40 362 57 213 33 285 34 327 2 20 -14 96 -167 290 -584 l262 -564 1 -582
0 -581 -29 -25 c-23 -19 -52 -27 -142 -41 -63 -9 -160 -24 -216 -33 l-103 -16
0 -470 0 -470 -32 -30 c-52 -47 -1316 -767 -1347 -767 -3 0 2 6 10 13 12 10
13 77 9 451 -4 339 -8 440 -17 444 -21 6 -15 56 7 72 17 12 21 25 19 71 -2 49
-4 56 -21 51 -10 -2 -18 -8 -18 -13 0 -5 7 -5 17 -2 10 4 14 2 9 -5 -3 -6 -15
-10 -26 -9 -10 1 -17 4 -15 7 2 4 -18 -4 -44 -17 -59 -30 -143 -33 -193 -7
-18 9 -139 79 -270 155 -130 77 -243 142 -252 145 -14 5 -16 -49 -18 -552 l-3
-559 -70 -17 c-38 -10 -76 -16 -82 -13 -10 3 -13 118 -13 530 0 343 -3 525
-10 525 -5 0 -10 9 -10 20 0 12 7 20 17 20 9 0 14 3 10 6 -3 4 -14 3 -24 -1
-10 -4 -29 -8 -43 -10 -14 -1 -106 -14 -205 -28 -99 -15 -243 -33 -319 -40
l-139 -12 -94 -205 c-101 -222 -125 -253 -192 -265 -36 -6 -310 29 -515 66
-43 8 -62 7 -70 -1 -15 -15 -26 -1076 -11 -1091 7 -7 2 -9 -15 -5 -14 2 -52 7
-85 11 -64 6 -536 76 -1025 151 -162 25 -307 50 -322 55 -58 23 -55 -5 -63
619 l-7 575 71 153 c39 85 68 159 64 165 -3 6 -1 7 5 3 10 -6 18 8 10 17 -2 1
5 13 14 26 9 13 14 30 11 39 -4 9 -2 13 4 9 5 -3 10 0 10 8 0 8 -4 12 -9 9 -4
-3 -8 0 -8 6 0 6 -4 8 -10 5 -5 -3 -10 -2 -10 4 0 5 -10 13 -22 17 -77 24
-384 204 -529 310 -26 19 -55 34 -65 34 -50 1 -523 -84 -512 -92 9 -5 7 -8 -7
-8 -15 0 -17 -2 -6 -9 11 -7 11 -9 0 -14 -10 -4 -9 -6 3 -6 15 -1 16 -40 15
-526 -2 -330 -6 -528 -12 -534 -15 -15 -204 -43 -252 -38 -65 7 -91 30 -133
120 -21 45 -139 300 -264 566 l-226 483 0 316 0 315 -82 -6 c-46 -4 -118 -7
-162 -7 l-79 0 7 -97 c3 -54 13 -635 22 -1291 17 -1338 21 -1244 -56 -1360
-50 -75 -119 -138 -228 -210 -247 -161 -594 -235 -952 -202 -74 6 -137 13
-138 15 -2 2 -16 126 -32 277 -15 150 -28 271 -29 268 0 -3 -12 -120 -26 -260
-14 -140 -27 -256 -29 -257 -7 -8 -205 62 -271 94 -177 89 -324 232 -403 392
l-37 75 2 418 c2 284 -1 418 -8 418 -5 0 -54 -25 -107 -56 -53 -31 -117 -68
-142 -82 -25 -14 -101 -58 -170 -98 -69 -39 -314 -181 -545 -314 -597 -345
-655 -381 -747 -474 -49 -49 -88 -118 -88 -156 0 -42 40 -108 95 -159 30 -27
164 -115 297 -197 134 -81 293 -178 353 -215 156 -95 221 -130 230 -121 5 4 5
2 2 -4 -5 -9 163 -119 328 -214 97 -55 506 -306 524 -320 18 -15 17 -20 -7
-177 -21 -138 -23 -169 -13 -203 28 -95 138 -150 296 -150 131 0 171 17 436
192 197 130 238 161 253 192 46 98 -47 206 -195 223 -48 6 -50 7 -45 32 2 14
15 83 28 153 15 89 27 129 38 133 8 4 46 10 85 15 102 13 204 -3 292 -46 l73
-35 2 -534 c3 -487 1 -537 -14 -572 -35 -77 -11 -178 52 -223 82 -59 260 -78
377 -42 39 13 135 70 296 175 204 134 240 162 253 193 30 72 -8 149 -94 190
-45 22 -76 29 -146 32 l-88 5 5 51 c3 28 11 113 18 189 7 75 16 137 20 137 5
0 41 -20 81 -43 90 -54 382 -223 461 -266 162 -90 305 -176 330 -200 59 -54
57 -31 57 -642 0 -515 1 -566 18 -600 15 -33 20 -37 45 -32 20 4 27 2 25 -8
-2 -8 3 -13 10 -11 7 1 24 -6 38 -17 24 -19 24 -20 5 -26 -24 -7 -18 -30 9
-32 22 -2 28 13 8 19 -7 3 -4 7 7 12 11 4 16 4 12 0 -4 -4 5 -16 20 -27 24
-16 25 -18 6 -12 -13 3 -31 2 -40 -4 -16 -9 -16 -10 5 -11 12 0 22 -4 22 -10
0 -5 6 -7 14 -4 8 3 25 -6 37 -20 13 -14 31 -26 40 -26 10 0 24 -9 32 -20 8
-11 17 -17 20 -13 4 3 7 1 7 -6 0 -7 5 -9 10 -6 6 3 10 1 10 -5 0 -6 5 -8 10
-5 6 4 7 11 4 17 -4 7 -2 8 4 4 6 -4 9 -13 6 -20 -3 -9 5 -20 20 -28 28 -14
366 -212 526 -308 52 -31 205 -121 340 -200 135 -78 273 -160 308 -182 34 -21
68 -36 74 -32 6 4 8 3 4 -4 -3 -6 4 -14 16 -18 13 -4 25 -9 28 -13 3 -3 41
-25 85 -48 214 -110 470 -184 750 -214 187 -20 420 7 614 70 103 34 163 63
319 155 57 34 117 69 135 79 25 15 204 122 297 178 8 5 78 46 155 92 194 116
569 345 798 486 117 72 117 73 117 111 0 36 4 41 55 72 31 18 90 54 132 81 83
50 107 56 153 32 35 -18 50 -43 50 -85 0 -50 -25 -69 -285 -223 -11 -7 -39
-25 -64 -41 l-44 -29 5 37 c2 22 0 36 -7 36 -6 0 -49 -24 -96 -53 -111 -70
-349 -216 -403 -247 -247 -143 -753 -457 -748 -464 3 -5 0 -6 -5 -3 -6 4 -75
-32 -153 -79 -270 -161 -399 -213 -640 -255 -112 -20 -422 -17 -542 5 -53 9
-107 19 -120 20 -13 2 -30 6 -38 9 -45 16 -195 59 -211 60 -11 1 -19 4 -19 8
0 3 -18 11 -41 18 -55 17 -253 117 -369 187 -52 32 -147 88 -210 124 -63 37
-214 125 -335 197 -121 71 -242 142 -270 158 -27 15 -91 52 -142 81 -50 30
-96 54 -102 54 -6 0 -11 4 -11 9 0 5 -10 13 -23 17 -12 4 -33 15 -46 25 -13
10 -27 16 -32 13 -5 -3 -9 -1 -9 5 0 6 -11 13 -25 17 -14 3 -25 11 -25 16 0 6
-7 5 -15 -2 -13 -11 -14 -10 -9 3 3 10 -2 20 -15 27 -12 6 -21 8 -21 5 0 -3
-10 3 -22 14 -17 17 -24 18 -37 8 -9 -7 -12 -8 -8 -1 4 7 -1 18 -10 25 -15 12
-16 12 -10 -3 5 -14 1 -18 -19 -18 -16 0 -23 -4 -18 -11 4 -8 0 -8 -15 0 -11
7 -21 18 -21 27 0 19 -42 36 -52 20 -6 -8 -8 -8 -8 1 0 9 -49 33 -66 33 -2 0
-4 -304 -4 -675 l0 -675 4160 0 c4153 0 4160 0 4160 20 0 13 -7 20 -20 20 -17
0 -20 7 -20 40 0 44 4 48 27 24 13 -13 14 -17 3 -24 -18 -11 14 -44 35 -36 22
8 19 19 -15 54 -16 18 -30 41 -30 51 0 11 -4 23 -10 26 -5 3 -10 19 -10 36 0
27 -2 29 -40 29 l-40 0 0 40 c0 33 -3 40 -20 40 -18 0 -20 7 -20 58 0 46 -4
60 -20 72 -11 8 -20 22 -20 32 0 11 -7 18 -20 18 -11 0 -20 5 -20 10 0 6 -9
10 -20 10 -26 0 -25 8 2 32 19 16 20 21 8 28 -21 14 -30 12 -36 -5 -4 -8 -12
-15 -20 -15 -17 0 -19 47 -2 52 19 7 -2 28 -28 28 -21 0 -24 4 -24 40 0 33 -3
40 -20 40 -13 0 -20 7 -20 20 0 11 -4 20 -10 20 -5 0 -10 9 -10 20 0 11 -4 20
-10 20 -5 0 -10 9 -10 20 0 13 -7 20 -20 20 -17 0 -20 7 -20 40 0 33 -3 40
-20 40 -23 0 -26 21 -8 50 10 16 10 24 0 40 -6 11 -12 26 -12 34 0 14 -29 31
-38 21 -3 -3 0 -5 6 -5 7 0 12 -13 12 -30 0 -16 -4 -30 -10 -30 -5 0 -10 9
-10 20 0 14 -7 20 -21 20 -20 0 -21 4 -17 51 4 35 1 55 -8 64 -8 7 -14 25 -14
39 0 14 -4 26 -10 26 -5 0 -10 -4 -10 -10 0 -5 -9 -10 -20 -10 -22 0 -27 29
-9 47 16 16 2 33 -27 33 -17 0 -24 5 -24 20 0 13 -7 20 -20 20 -22 0 -28 28
-9 47 16 16 7 67 -13 71 -13 2 -18 -3 -18 -17 0 -12 -4 -21 -10 -21 -6 0 -10
38 -10 93 0 93 0 93 -32 117 -20 15 -29 18 -26 8 4 -10 0 -14 -15 -13 -28 3
-57 -12 -54 -28 1 -7 -7 -11 -22 -9 -16 3 -21 0 -16 -9 6 -8 4 -10 -5 -4 -7 4
-16 2 -21 -6 -4 -8 -13 -15 -19 -15 -5 -1 -14 -2 -18 -3 -18 -2 -52 -43 -46
-53 4 -7 2 -8 -5 -4 -6 4 -8 12 -5 18 4 6 -2 5 -15 -2 -12 -6 -19 -15 -16 -20
3 -6 0 -8 -7 -5 -7 3 -44 -13 -83 -36 -312 -184 -324 -189 -480 -196 -82 -4
-128 -1 -180 11 -72 17 -93 28 -425 221 -96 56 -355 206 -575 333 -444 257
-475 280 -483 360 -9 95 22 126 269 267 l174 99 -3 721 -3 720 328 189 c374
216 895 517 904 522 3 2 95 -48 203 -111 109 -63 203 -115 209 -115 7 0 8 208
4 700 l-6 700 27 18 c15 11 236 140 492 287 256 148 523 301 593 342 l128 74
200 -115 c110 -64 202 -116 205 -116 2 0 5 318 6 706 l3 706 185 107 c102 59
293 170 425 246 132 76 325 187 428 247 104 60 194 107 201 105 8 -3 215 -122
462 -265 247 -143 519 -300 604 -349 l155 -89 3 -1289 c3 -1252 0 -1475 -19
-1475 -5 0 -9 11 -9 25 0 14 -4 25 -10 25 -5 0 -10 -11 -10 -25 l0 -25 -767 0
c-699 0 -768 1 -785 17 -17 15 -18 14 -19 -23 -1 -37 -2 -38 -8 -9 -4 17 -10
-237 -13 -564 -5 -474 -9 -596 -20 -603 -10 -8 -10 -11 0 -15 18 -7 15 -31 -9
-56 l-20 -22 -780 0 c-512 0 -779 -3 -779 -10 0 -5 -4 -4 -9 4 -5 7 -11 9 -14
4 -3 -5 -9 -239 -13 -519 l-7 -509 202 -118 c112 -64 207 -117 212 -117 5 0
166 90 357 201 191 110 465 269 609 352 l263 152 0 223 c0 122 2 222 5 222 3
0 95 -52 206 -116 179 -104 203 -116 224 -106 14 6 138 77 277 158 139 81 341
198 448 259 107 62 260 151 340 197 l145 84 3 197 c1 108 5 197 9 197 9 0 298
-167 350 -202 22 -15 51 -43 62 -62 l21 -33 0 -2087 0 -2086 1075 0 1075 0 0
10000 0 10000 -10000 0 -10000 0 0 -10000z m4394 3664 c10 -4 16 -18 16 -35 0
-25 -7 -32 -52 -55 -215 -109 -349 -121 -618 -53 -266 67 -399 60 -601 -33
-65 -29 -67 -31 -73 -74 -14 -107 -115 -242 -218 -293 -84 -43 -148 -40 -186
8 -11 14 -19 9 -68 -44 -171 -184 -365 -504 -474 -783 -47 -122 -68 -143 -102
-103 -17 22 -16 25 8 89 124 331 326 661 555 907 38 40 62 77 73 111 47 145
197 284 306 284 19 0 50 -9 67 -20 l33 -20 86 35 c198 80 343 84 613 16 240
-60 360 -52 527 32 74 38 83 40 108 31z m-1264 -2261 l0 -918 -230 -132 -230
-132 2 922 3 921 220 128 c121 70 223 127 228 127 4 1 7 -412 7 -916z m2130
703 c0 -3 -4 -8 -10 -11 -5 -3 -10 -1 -10 4 0 6 5 11 10 11 6 0 10 -2 10 -4z
m-595 -354 c-3 -3 0 -10 5 -17 7 -8 5 -12 -5 -12 -8 0 -13 3 -10 5 3 3 0 10
-5 17 -7 8 -5 12 5 12 8 0 13 -3 10 -5z m-2157 -904 l-3 -723 -220 -127 c-121
-70 -226 -127 -233 -128 -10 0 -12 146 -12 718 l1 717 227 132 c125 72 230
132 235 132 4 1 6 -324 5 -721z m15800 56 l72 -27 0 -39 c0 -31 4 -40 23 -47
51 -19 198 -113 273 -174 213 -173 355 -411 413 -694 21 -100 23 -272 12 -783
-34 -1545 -41 -1883 -41 -2280 -2 -430 -12 -727 -30 -806 -5 -22 -12 -58 -15
-80 -2 -21 -14 -68 -24 -103 -11 -35 -17 -69 -14 -74 4 -6 1 -7 -7 -2 -10 6
-12 3 -8 -13 4 -12 2 -20 -3 -16 -5 3 -9 -7 -9 -22 0 -15 -3 -24 -6 -21 -4 4
-27 -28 -53 -71 -27 -45 -80 -112 -131 -163 -70 -71 -111 -102 -230 -171 -219
-129 -1106 -628 -1116 -628 -2 0 -4 15 -4 33 0 28 6 36 33 50 17 9 43 23 57
31 14 9 115 66 225 127 110 61 220 123 245 137 180 100 565 321 610 350 84 54
149 111 197 176 42 57 54 84 31 70 -7 -4 -8 -3 -4 5 4 6 11 9 16 6 12 -7 32
30 22 40 -4 5 -2 5 4 2 12 -7 64 97 64 126 0 9 4 18 9 21 10 6 26 82 22 104
-1 6 2 12 7 12 5 0 14 39 21 88 7 48 15 96 18 107 2 11 9 380 13 820 5 440 14
982 19 1205 30 1201 34 1529 22 1630 -43 353 -242 659 -547 842 -110 66 -114
67 -114 29 0 -17 -3 -31 -6 -31 -9 0 -195 69 -221 82 -30 15 -57 69 -50 100 4
13 18 37 31 51 33 35 78 35 174 1z m556 -5060 c3 -8 2 -12 -4 -9 -6 3 -10 10
-10 16 0 14 7 11 14 -7z m-14894 -3949 c10 -12 10 -15 -4 -15 -9 0 -16 7 -16
15 0 8 2 15 4 15 2 0 9 -7 16 -15z m2535 -653 c-3 -3 -11 0 -18 7 -9 10 -8 11
6 5 10 -3 15 -9 12 -12z m7435 -112 c0 -5 -4 -10 -10 -10 -5 0 -10 5 -10 10 0
6 5 10 10 10 6 0 10 -4 10 -10z m-10046 -399 c3 -5 -10 -19 -29 -32 -19 -13
-41 -36 -48 -51 -6 -16 -15 -28 -19 -28 -11 0 -10 18 2 25 15 9 12 45 -5 51
-8 4 -15 12 -15 20 0 16 16 19 25 4 9 -15 41 -12 55 5 14 17 26 19 34 6z m-92
-253 c9 -29 14 -55 12 -57 -8 -9 -42 45 -34 54 5 6 5 17 0 25 -12 18 -13 30
-2 30 4 0 15 -24 24 -52z m10698 -298 c0 -11 -4 -20 -10 -20 -5 0 -10 9 -10
20 0 11 5 20 10 20 6 0 10 -9 10 -20z"/>
<path d="M10019 15275 c-1 -1152 -2 -2100 -3 -2107 -1 -13 -17 -4 494 -298
672 -387 896 -517 1090 -630 102 -59 275 -159 385 -222 110 -64 245 -141 300
-173 55 -32 300 -174 545 -315 245 -141 506 -292 580 -335 74 -43 191 -111
260 -150 69 -40 217 -125 330 -190 113 -65 219 -126 235 -135 26 -15 727 -421
1200 -695 208 -120 481 -278 780 -450 132 -76 289 -167 348 -202 60 -34 111
-63 113 -63 2 0 4 949 4 2109 l0 2110 -92 54 c-51 29 -214 124 -363 209 -148
86 -443 256 -655 378 -212 122 -491 283 -620 358 -129 74 -329 190 -445 257
-115 67 -348 201 -517 299 -293 168 -1606 925 -2073 1196 -121 70 -251 145
-290 167 -38 22 -171 98 -295 170 -207 120 -512 296 -915 528 -88 51 -211 122
-274 159 -62 36 -115 66 -117 66 -2 0 -5 -943 -5 -2095z m1287 580 c434 -76
934 -431 1310 -930 94 -124 138 -195 128 -204 -5 -4 -116 -44 -246 -89 l-237
-81 -64 82 c-83 106 -242 258 -329 314 -166 108 -293 148 -435 140 l-91 -5
-241 361 c-133 199 -241 365 -241 369 0 13 40 29 103 43 85 18 236 18 343 0z
m-278 -452 l241 -361 -38 -41 c-77 -81 -107 -185 -98 -338 11 -209 100 -429
263 -650 66 -90 226 -253 297 -304 l49 -34 -3 -290 c-2 -159 0 -296 4 -302 5
-8 4 -13 -2 -13 -6 0 -11 -13 -11 -30 0 -16 -2 -30 -6 -30 -11 0 -132 86 -219
156 -133 106 -331 304 -434 433 -19 24 -40 49 -46 55 -13 13 -21 26 -111 157
-501 732 -606 1534 -247 1882 59 57 105 89 114 79 3 -4 115 -170 247 -369z
m2611 -1334 c97 -56 196 -113 221 -127 25 -13 50 -28 55 -32 6 -4 87 -51 180
-105 158 -91 491 -283 595 -344 25 -14 105 -60 178 -101 l131 -75 1 -163 0
-163 -32 17 c-18 9 -80 45 -138 79 -58 34 -125 73 -150 87 -25 14 -90 51 -145
83 -131 76 -420 242 -465 267 -19 11 -60 35 -90 53 -30 18 -75 44 -100 57 -25
14 -101 58 -170 98 -126 73 -164 95 -232 133 l-38 21 0 158 c0 111 3 158 11
158 7 0 91 -46 188 -101z m-163 -548 c8 -8 145 -88 799 -464 143 -82 274 -158
290 -167 176 -102 362 -210 415 -240 36 -20 121 -70 190 -110 69 -40 139 -80
156 -90 16 -10 165 -95 329 -190 164 -95 313 -180 329 -190 17 -9 54 -31 81
-47 l50 -29 3 -162 c1 -89 1 -162 -2 -162 -3 0 -84 46 -281 160 -214 124 -535
309 -715 413 -124 71 -238 137 -255 147 -16 9 -147 85 -290 167 -143 83 -379
219 -525 303 -146 84 -274 158 -285 164 -11 6 -89 51 -172 100 l-153 88 0 159
c0 124 3 159 13 159 7 0 17 -4 23 -9z m74 -691 c36 -21 81 -47 100 -58 54 -30
600 -345 744 -429 154 -90 561 -325 881 -508 127 -73 313 -181 415 -240 102
-59 210 -121 240 -138 30 -17 66 -38 80 -47 14 -10 44 -27 68 -39 l42 -21 0
-160 c0 -90 -4 -160 -9 -160 -5 0 -90 47 -188 103 -182 106 -494 287 -548 317
-16 10 -118 68 -225 130 -212 123 -627 362 -675 390 -79 45 -379 218 -450 260
-44 26 -177 102 -295 170 -118 67 -232 134 -252 147 l-38 23 0 160 0 161 23
-12 c12 -6 51 -29 87 -49z"/>
<path d="M7065 15655 c-206 -45 -436 -175 -537 -303 -81 -102 -123 -270 -116
-469 l4 -123 -32 0 c-103 0 -173 -84 -174 -205 0 -157 102 -348 224 -420 86
-50 186 -54 251 -9 l35 23 52 -52 c95 -95 229 -160 384 -188 60 -11 74 -18
104 -51 40 -45 91 -58 140 -38 103 43 92 199 -16 229 -45 12 -97 -2 -122 -34
-25 -31 -41 -31 -144 1 -119 37 -227 97 -302 166 l-66 60 0 61 c0 149 -88 329
-198 407 l-35 25 6 145 c7 158 24 256 56 318 97 191 470 392 727 392 46 0 84
3 84 6 0 17 -24 46 -50 59 -37 19 -190 19 -275 0z"/>
<path d="M8910 15309 c-107 -29 -251 -96 -406 -189 -73 -44 -148 -89 -166 -99
-18 -10 -50 -28 -70 -41 l-38 -22 0 -966 0 -967 -143 -82 -142 -82 -5 342 c-6
401 -8 412 -110 520 -52 56 -168 137 -195 137 -6 0 -18 -15 -27 -32 -28 -59
-106 -135 -170 -167 -34 -17 -67 -31 -74 -31 -11 0 -10 -8 1 -41 24 -67 18
-111 -50 -400 -36 -151 -87 -363 -112 -471 -26 -108 -50 -195 -54 -192 -4 2
-100 163 -215 358 l-207 353 -51 25 c-28 14 -79 47 -114 73 -142 107 -176 233
-86 323 31 31 43 52 29 52 -13 0 -165 -82 -207 -112 -245 -175 -381 -326 -440
-488 l-23 -65 1 -701 1 -701 -246 -141 c-135 -78 -251 -146 -258 -150 -7 -4
-22 -55 -33 -114 -37 -191 -71 -267 -157 -349 -60 -58 -143 -106 -220 -129
l-43 -13 1 -161 0 -161 59 -48 c117 -95 361 -330 384 -370 14 -23 37 -82 51
-132 26 -88 85 -414 85 -467 0 -15 4 -29 8 -32 5 -3 42 8 83 24 81 31 231 57
273 46 19 -5 26 -13 26 -30 0 -58 -69 -97 -200 -112 -40 -4 -76 -17 -112 -38
-48 -30 -53 -36 -52 -67 1 -19 7 -187 12 -374 10 -304 13 -347 32 -405 74
-220 151 -279 382 -288 123 -5 253 11 379 47 l64 18 3 68 3 68 52 -7 c29 -3
61 -6 72 -6 17 0 20 -7 21 -50 1 -28 -3 -50 -7 -50 -5 0 -9 -5 -9 -10 0 -7 7
-7 20 0 11 6 18 15 15 20 -3 6 0 7 8 5 19 -8 47 27 58 72 6 21 14 54 19 74 5
19 26 70 45 111 24 49 42 108 51 165 21 126 22 131 44 153 26 26 76 26 90 1 5
-11 10 -66 10 -123 0 -117 13 -178 37 -178 9 0 69 30 132 67 225 130 221 124
221 280 l0 113 -38 37 c-21 21 -145 99 -275 173 -130 74 -237 138 -237 142 0
3 84 55 187 114 184 106 245 143 271 164 10 9 12 296 12 1408 l-1 1396 25 19
c14 10 26 15 26 10 0 -4 0 -635 0 -1400 0 -766 2 -1393 5 -1393 12 0 102 50
350 193 254 147 262 151 327 155 79 5 48 19 379 -171 l255 -148 140 30 c239
52 575 101 694 101 25 0 50 4 55 8 6 4 56 103 110 221 96 207 101 215 140 232
22 10 55 19 74 19 18 0 322 -45 675 -100 352 -54 790 -122 971 -150 182 -28
343 -55 359 -60 68 -23 66 -14 66 -319 l0 -276 73 -37 c39 -21 110 -61 157
-89 l85 -51 115 58 c273 140 431 302 469 482 7 36 11 302 11 841 l0 788 -39
26 c-21 14 -302 178 -622 363 -321 185 -741 428 -934 539 -192 111 -568 328
-835 482 -267 154 -530 306 -585 338 -134 77 -170 103 -241 171 -113 109 -203
254 -255 409 l-24 70 -5 780 -5 780 -95 2 c-69 2 -115 -3 -170 -18z"/>
<path d="M9326 8932 c7 -4 -14 -8 -45 -9 -32 -1 -104 -13 -162 -28 -341 -86
-614 -228 -789 -412 -141 -147 -199 -269 -207 -433 -8 -152 33 -276 136 -411
426 -557 1651 -745 2491 -382 122 53 166 76 273 147 l78 51 -25 22 c-14 11
-65 45 -113 75 -244 149 -538 242 -899 284 -112 13 -188 15 -389 9 -137 -3
-262 -7 -278 -7 -15 -1 -30 1 -32 4 -10 10 -6 993 5 996 13 5 13 42 0 42 -15
0 -12 30 3 30 7 0 4 7 -7 15 -11 8 -27 15 -35 15 -11 0 -12 -3 -5 -8z"/>
<path d="M11856 6132 c-2 -4 4 -8 14 -8 10 0 16 4 14 8 -3 4 -9 8 -14 8 -5 0
-11 -4 -14 -8z"/>
<path d="M12895 2424 c-9 -54 -13 -64 -14 -32 -1 15 -6 30 -12 33 -10 7 -273
8 -884 6 -137 0 -267 1 -287 3 l-38 4 0 -101 1 -102 192 -111 c106 -62 273
-159 372 -216 99 -57 286 -166 416 -241 130 -75 241 -137 246 -137 6 0 156 85
334 188 178 104 443 257 589 341 146 85 275 160 288 168 21 13 23 19 20 109
l-3 95 -165 3 c-91 1 -301 -1 -466 -6 -321 -9 -561 1 -575 23 -4 8 -10 -2 -14
-27z"/>
<path d="M13775 1620 c-19 -8 -19 -9 3 -9 12 -1 22 4 22 9 0 6 -1 10 -2 9 -2
0 -12 -4 -23 -9z"/>
<path d="M6330 1489 c-13 -7 -13 -9 0 -9 12 0 12 -2 2 -9 -10 -6 -9 -11 5 -22
10 -7 15 -10 11 -5 -4 5 -3 17 2 27 12 21 0 32 -20 18z"/>
<path d="M6315 1360 c-4 -6 -16 -8 -28 -5 -20 5 -20 5 -4 -5 10 -7 30 -13 45
-15 23 -2 24 -1 9 10 -9 6 -14 15 -10 18 3 4 4 7 0 7 -3 0 -9 -5 -12 -10z"/>
<path d="M6379 1331 c8 -5 9 -10 2 -12 -7 -3 -7 -8 0 -19 8 -11 12 -12 15 -3
3 7 12 9 21 6 11 -4 14 -2 11 8 -3 8 -10 14 -15 14 -6 0 -15 3 -19 8 -4 4 -12
7 -18 7 -6 0 -5 -4 3 -9z"/>
<path d="M3886 555 c-36 -37 -4 -80 57 -76 15 1 18 8 15 44 -3 37 -6 42 -29
45 -15 2 -34 -4 -43 -13z"/>
</g>
</svg>
